<?xml version="1.0" standalone="no"?>
<!DOCTYPE svg PUBLIC "-//W3C//DTD SVG 20010904//EN"
 "http://www.w3.org/TR/2001/REC-SVG-20010904/DTD/svg10.dtd">
<svg version="1.0" xmlns="http://www.w3.org/2000/svg"
 width="345.000000pt" height="205.000000pt" viewBox="0 0 345.000000 205.000000"
 preserveAspectRatio="xMidYMid meet">

<g transform="translate(0.000000,205.000000) scale(0.100000,-0.100000)"
fill="#000000" stroke="none">
<path d="M1 1954 c2 -81 5 -96 21 -105 10 -5 24 -7 30 -3 6 4 33 6 60 5 42 -2
48 0 48 19 0 17 6 20 40 20 34 0 40 3 40 21 0 20 3 21 80 14 56 -5 80 -4 80 4
0 6 15 11 34 11 21 0 36 6 40 15 3 10 -1 15 -11 15 -14 0 -14 3 -5 13 7 6 50
17 95 22 65 8 83 14 85 28 3 16 -17 17 -318 17 l-321 0 2 -96z"/>
<path d="M20 1799 c0 -5 5 -7 10 -4 6 3 10 8 10 11 0 2 -4 4 -10 4 -5 0 -10
-5 -10 -11z"/>
<path d="M13 714 c-10 -4 -13 -86 -13 -360 l0 -354 549 0 c430 0 550 3 554 13
4 9 7 9 18 -1 15 -14 75 -16 84 -2 3 5 -4 19 -16 31 -28 28 -41 113 -15 103 9
-3 16 -1 16 5 0 6 -13 11 -30 11 -36 0 -37 6 -8 37 l22 23 -28 29 c-15 16 -26
35 -25 42 5 29 -21 68 -65 99 -25 17 -46 34 -46 39 0 4 51 5 113 3 61 -2 110
-2 107 1 -3 2 -57 7 -120 10 -135 7 -173 14 -218 39 -18 10 -47 18 -65 19 -25
0 -28 2 -13 8 17 6 16 9 -10 19 -35 13 -193 21 -200 10 -8 -13 -24 1 -24 22 0
17 -13 21 -35 9 -17 -9 -80 -11 -72 -3 5 5 -13 14 -40 20 l-48 12 40 1 c22 1
62 4 89 7 34 3 52 1 57 -8 5 -8 9 -8 9 -2 0 7 43 12 127 13 70 1 129 4 132 7
10 10 -12 17 -55 16 -35 0 -44 3 -40 14 7 19 -18 18 -34 -1 -18 -22 -32 -18
-25 6 7 20 5 21 -23 16 -29 -6 -146 12 -184 28 -9 3 -31 3 -50 -2 -18 -5 -51
-6 -73 -2 l-40 6 40 2 c22 1 47 6 55 12 12 9 12 10 -3 5 -10 -3 -41 -6 -68 -6
-31 0 -48 -4 -44 -10 3 -5 -1 -10 -9 -10 -9 0 -16 4 -16 10 0 5 -12 8 -27 8
-16 -1 -71 1 -123 5 -52 3 -101 4 -107 1z m430 -211 c-7 -2 -21 -2 -30 0 -10
3 -4 5 12 5 17 0 24 -2 18 -5z m-253 -47 c0 -3 -4 -8 -10 -11 -5 -3 -10 -1
-10 4 0 6 5 11 10 11 6 0 10 -2 10 -4z m80 -16 c0 -5 -4 -10 -10 -10 -5 0 -10
5 -10 10 0 6 5 10 10 10 6 0 10 -4 10 -10z m210 -10 c0 -5 -4 -10 -10 -10 -5
0 -10 5 -10 10 0 6 5 10 10 10 6 0 10 -4 10 -10z m-140 -71 c0 -5 -4 -9 -10
-9 -5 0 -10 7 -10 16 0 8 5 12 10 9 6 -3 10 -10 10 -16z m-100 -9 c0 -5 -2
-10 -4 -10 -3 0 -8 5 -11 10 -3 6 -1 10 4 10 6 0 11 -4 11 -10z m735 1 c3 -5
1 -12 -5 -16 -5 -3 -10 1 -10 9 0 18 6 21 15 7z m-778 -103 c-3 -8 -6 -5 -6 6
-1 11 2 17 5 13 3 -3 4 -12 1 -19z m-91 -35 c-10 -10 -19 5 -10 18 6 11 8 11
12 0 2 -7 1 -15 -2 -18z m714 7 c0 -5 -2 -10 -4 -10 -3 0 -8 5 -11 10 -3 6 -1
10 4 10 6 0 11 -4 11 -10z m-627 -20 c3 -11 1 -23 -4 -26 -5 -3 -9 6 -9 20 0
31 6 34 13 6z m857 -65 c13 -14 20 -25 16 -25 -5 0 -2 -8 5 -17 7 -10 -4 -2
-24 17 -20 19 -37 38 -37 43 0 14 17 7 40 -18z m66 -60 c-3 -9 -11 -13 -17 -9
-8 5 -8 9 1 14 9 5 9 9 1 14 -6 4 -11 12 -11 19 0 7 7 5 16 -5 10 -9 14 -24
10 -33z"/>
<path d="M888 613 c7 -3 16 -2 19 1 4 3 -2 6 -13 5 -11 0 -14 -3 -6 -6z"/>
<path d="M595 570 c4 -6 11 -8 16 -5 14 9 11 15 -7 15 -8 0 -12 -5 -9 -10z"/>
<path d="M1138 543 c12 -2 32 -2 45 0 12 2 2 4 -23 4 -25 0 -35 -2 -22 -4z"/>
<path d="M2260 331 c0 -5 5 -13 10 -16 6 -3 10 -2 10 4 0 5 -4 13 -10 16 -5 3
-10 2 -10 -4z"/>
<path d="M2138 323 c7 -3 16 -2 19 1 4 3 -2 6 -13 5 -11 0 -14 -3 -6 -6z"/>
<path d="M2226 321 c-3 -5 1 -14 8 -20 12 -10 13 -8 9 8 -6 23 -9 25 -17 12z"/>
<path d="M2338 323 c6 -2 18 -2 25 0 6 3 1 5 -13 5 -14 0 -19 -2 -12 -5z"/>
<path d="M2272 292 c-10 -3 -9 -8 4 -23 13 -15 25 -17 60 -12 27 3 44 2 44 -5
0 -14 -61 -20 -123 -12 -29 4 -63 4 -77 -1 -24 -7 -24 -7 6 -8 17 -1 42 -9 55
-19 13 -10 43 -24 67 -32 42 -13 53 -25 30 -32 -13 -5 -91 32 -96 45 -2 4 -8
7 -13 7 -6 0 -28 9 -49 19 -22 11 -42 15 -46 10 -3 -5 5 -13 18 -18 13 -6 19
-10 14 -10 -5 -1 -2 -9 5 -18 12 -15 12 -16 -6 -9 -11 4 -36 10 -55 12 -30 3
-32 2 -10 -5 14 -5 21 -9 16 -10 -5 -1 -3 -7 3 -15 10 -12 7 -15 -16 -19 -27
-4 -27 -4 4 -6 17 0 35 -6 38 -11 4 -7 -2 -9 -19 -4 -16 4 -26 2 -26 -5 0 -12
8 -14 55 -15 22 -1 30 -6 29 -18 -1 -10 5 -18 13 -18 8 0 11 -5 8 -10 -3 -6 2
-10 13 -10 10 0 28 -9 40 -20 17 -16 35 -20 94 -20 68 1 71 2 48 15 l-25 14
30 1 c17 0 43 -7 59 -15 17 -9 56 -15 99 -15 63 0 69 2 52 14 -17 12 -17 16
-6 30 9 10 21 14 34 10 29 -9 11 15 -20 27 -36 13 -19 30 18 17 17 -6 35 -21
40 -35 5 -14 15 -23 25 -21 9 2 19 -3 21 -9 3 -7 0 -13 -7 -13 -6 0 -8 -5 -5
-10 10 -16 475 -13 475 3 0 8 3 9 8 1 4 -7 50 -11 121 -12 l114 -1 -41 25
c-27 16 -50 23 -63 19 -11 -4 -26 -1 -34 5 -12 10 -15 10 -15 -1 0 -9 -11 -14
-30 -14 -24 0 -29 3 -24 17 3 12 0 18 -9 18 -8 0 -22 9 -32 20 -10 11 -31 20
-46 20 -21 0 -27 4 -23 14 4 11 -5 16 -33 21 -21 3 -45 10 -53 16 -45 29 -87
41 -127 36 -24 -2 -46 0 -49 5 -4 5 -16 7 -29 4 -24 -6 -61 24 -48 39 5 4 -7
6 -24 3 -18 -2 -33 -1 -33 4 0 4 5 8 11 8 8 0 8 5 -1 15 -17 21 -20 20 -63
-21 l-37 -36 -11 31 c-6 16 -18 32 -27 35 -21 5 -77 0 -91 -8 -6 -4 -22 -1
-37 7 -23 12 -32 12 -67 0 -41 -14 -102 -11 -109 6 -2 4 -9 6 -16 3z m188 -72
c0 -5 -4 -10 -9 -10 -6 0 -13 5 -16 10 -3 6 1 10 9 10 9 0 16 -4 16 -10z m40
-25 c-7 -8 -16 -15 -21 -15 -5 0 -6 7 -3 15 4 8 13 15 21 15 13 0 13 -3 3 -15z
m117 -11 c-9 -9 -28 6 -21 18 4 6 10 6 17 -1 6 -6 8 -13 4 -17z m-156 -10 c9
-11 22 -14 42 -10 17 3 36 1 43 -5 7 -6 25 -14 41 -18 47 -13 21 -34 -37 -30
-8 0 -33 1 -55 3 -72 3 -108 25 -67 41 16 6 16 7 -2 21 -19 14 -19 14 1 14 11
0 26 -7 34 -16z m239 -54 c0 -5 -2 -10 -4 -10 -3 0 -8 5 -11 10 -3 6 -1 10 4
10 6 0 11 -4 11 -10z m-467 -47 c-7 -2 -19 -2 -25 0 -7 3 -2 5 12 5 14 0 19
-2 13 -5z m126 -49 c10 -9 -6 -11 -36 -7 -18 3 -30 9 -27 14 5 8 52 2 63 -7z"/>
<path d="M2648 293 c6 -2 18 -2 25 0 6 3 1 5 -13 5 -14 0 -19 -2 -12 -5z"/>
<path d="M2870 250 c-8 -5 -12 -11 -9 -14 7 -8 49 5 49 15 0 12 -21 11 -40 -1z"/>
<path d="M2920 230 c0 -5 9 -10 20 -10 11 0 20 5 20 10 0 6 -9 10 -20 10 -11
0 -20 -4 -20 -10z"/>
<path d="M2888 213 c7 -3 16 -2 19 1 4 3 -2 6 -13 5 -11 0 -14 -3 -6 -6z"/>
<path d="M3220 129 c14 -6 53 -25 86 -41 34 -17 68 -28 75 -26 8 3 -2 13 -26
24 -22 10 -47 24 -55 30 -8 7 -35 15 -60 18 -38 5 -41 4 -20 -5z"/>
</g>
</svg>
