<?xml version="1.0" standalone="no"?>
<!DOCTYPE svg PUBLIC "-//W3C//DTD SVG 20010904//EN"
 "http://www.w3.org/TR/2001/REC-SVG-20010904/DTD/svg10.dtd">
<svg version="1.0" xmlns="http://www.w3.org/2000/svg"
 width="345.000000pt" height="205.000000pt" viewBox="0 0 345.000000 205.000000"
 preserveAspectRatio="xMidYMid meet">

<g transform="translate(0.000000,205.000000) scale(0.100000,-0.100000)"
fill="#000000" stroke="none">
<path d="M0 2025 c0 -27 9 -32 28 -13 18 18 14 38 -8 38 -15 0 -20 -7 -20 -25z"/>
<path d="M870 1689 c0 -5 11 -9 25 -9 14 0 25 2 25 4 0 2 -11 6 -25 8 -14 3
-25 1 -25 -3z"/>
<path d="M798 1663 c7 -3 16 -2 19 1 4 3 -2 6 -13 5 -11 0 -14 -3 -6 -6z"/>
<path d="M855 1648 c-22 -5 -53 -10 -69 -12 -16 -2 -33 -11 -38 -20 -5 -9 -15
-16 -23 -16 -8 0 -21 -10 -29 -22 -9 -12 -26 -23 -38 -24 -22 -1 -78 -30 -105
-53 -18 -17 -25 -13 -18 9 4 12 2 20 -4 20 -25 0 -104 -45 -109 -62 -2 -10 -8
-18 -13 -18 -5 0 -15 -13 -23 -29 -16 -30 -29 -38 -84 -51 -27 -7 -38 -4 -54
12 -17 17 -22 18 -41 5 -12 -8 -30 -30 -39 -50 -19 -38 -52 -63 -80 -59 -9 2
-24 -8 -34 -22 -9 -15 -20 -26 -25 -26 -18 0 -8 26 20 57 18 20 25 34 17 37
-6 2 -3 5 6 5 9 1 19 9 22 19 2 9 3 3 1 -14 -2 -27 0 -31 17 -26 11 2 22 12
25 21 4 9 15 28 25 43 22 31 24 52 2 23 -13 -17 -16 -18 -25 -5 -8 11 -12 12
-16 3 -7 -19 -23 -16 -23 5 0 14 -2 15 -10 2 -9 -13 -11 -13 -19 0 -8 12 -13
12 -30 -4 -12 -11 -21 -24 -21 -29 0 -6 9 -2 20 8 19 18 20 17 20 -6 0 -14 -5
-30 -12 -37 -9 -9 -9 -12 1 -12 7 0 10 -4 6 -10 -3 -5 -13 -6 -22 -3 -10 4
-14 2 -10 -4 4 -6 0 -24 -8 -39 -13 -25 -15 -119 -15 -646 l0 -618 1725 0
1725 0 0 420 c0 273 -3 420 -10 420 -5 0 -10 5 -10 11 0 5 5 7 11 3 8 -4 8 -1
1 12 -5 11 -7 24 -5 30 2 6 -9 16 -24 21 -15 6 -44 16 -63 23 -19 6 -46 15
-60 18 -14 3 -36 12 -49 20 -13 9 -40 15 -60 14 -20 -1 -50 2 -67 7 -20 6 -60
4 -113 -4 -45 -8 -96 -13 -112 -13 -43 1 -80 -36 -72 -73 5 -28 4 -29 -35 -29
-44 0 -72 8 -72 20 0 5 9 6 20 3 14 -4 20 0 20 11 0 9 5 16 10 16 6 0 10 -5
10 -11 0 -5 4 -8 9 -5 5 3 7 14 4 25 -3 14 8 26 49 49 47 28 50 32 26 32 -15
0 -30 -5 -33 -10 -3 -6 -18 -7 -32 -4 -19 5 -30 2 -40 -11 -12 -17 -13 -17
-13 -2 0 14 -6 16 -27 11 -16 -4 -36 -11 -45 -15 -23 -12 -28 -11 -28 6 0 19
-39 19 -64 0 -15 -11 -23 -12 -33 -3 -19 15 -27 4 -13 -21 16 -32 -3 -25 -28
9 -13 16 -26 29 -30 29 -29 -5 -42 3 -42 26 0 33 -41 113 -75 148 -22 22 -37
27 -75 27 -34 0 -52 5 -65 20 -10 11 -23 20 -29 20 -5 0 -22 11 -36 25 -23 22
-29 24 -63 14 -28 -7 -47 -7 -72 2 -26 10 -40 10 -60 1 -15 -7 -31 -10 -36 -7
-5 4 -9 2 -9 -4 0 -7 -8 -7 -26 -1 -32 13 -47 13 -39 1 9 -16 -61 -24 -136
-17 -67 6 -80 1 -58 -21 8 -8 8 -13 0 -18 -19 -11 -75 -9 -79 3 -2 7 -8 12
-14 12 -15 0 -40 29 -33 39 3 5 -5 13 -17 17 -13 4 -41 24 -63 45 -22 22 -45
39 -51 39 -21 0 -44 34 -34 50 16 25 11 32 -20 28 -16 -3 -30 -1 -30 3 0 4
-14 12 -30 18 -30 10 -31 11 -24 62 l7 52 -24 -16 c-24 -18 -64 -23 -55 -8 3
4 -3 16 -14 26 -11 10 -17 22 -14 26 7 12 -40 29 -82 29 -22 0 -34 -5 -34 -14
0 -19 -49 -18 -80 2 -31 19 -53 22 -105 10z m-733 -320 c-6 -6 -7 0 -4 19 5
21 7 23 10 9 2 -10 0 -22 -6 -28z m1883 -47 c3 -5 2 -12 -3 -15 -5 -3 -9 1 -9
9 0 17 3 19 12 6z m564 -396 c0 -5 -4 -3 -9 5 -5 8 -9 22 -9 30 0 16 17 -16
18 -35z"/>
<path d="M690 1640 c-8 -26 -7 -41 2 -32 6 6 8 16 5 24 -3 7 -6 11 -7 8z"/>
<path d="M606 1575 c-3 -8 -1 -15 4 -15 6 0 10 7 10 15 0 8 -2 15 -4 15 -2 0
-6 -7 -10 -15z"/>
<path d="M467 1563 c-4 -3 -7 -11 -7 -17 0 -6 5 -5 12 2 6 6 9 14 7 17 -3 3
-9 2 -12 -2z"/>
<path d="M404 1541 c3 -4 -5 -7 -18 -6 -18 2 -25 -3 -29 -20 -2 -13 1 -26 7
-28 6 -3 15 -6 20 -8 5 -2 10 5 12 16 2 11 8 21 13 23 14 5 14 32 0 32 -5 0
-8 -4 -5 -9z"/>
<path d="M1290 1540 c0 -5 5 -10 11 -10 5 0 7 5 4 10 -3 6 -8 10 -11 10 -2 0
-4 -4 -4 -10z"/>
<path d="M283 1460 c-27 -33 -28 -43 -7 -61 12 -10 20 -10 35 -1 10 7 26 12
34 12 19 0 19 11 0 36 -8 10 -15 23 -15 28 0 6 6 2 13 -8 12 -17 14 -17 20 -2
4 9 1 16 -6 17 -7 0 -21 2 -32 4 -13 2 -28 -7 -42 -25z m47 -9 c13 -25 13 -41
0 -21 -9 13 -11 13 -19 0 -5 -8 -7 -18 -5 -22 3 -4 1 -8 -5 -8 -15 0 -23 18
-11 25 5 3 10 15 10 26 0 25 16 25 30 0z"/>
<path d="M367 1453 c-4 -3 -7 -11 -7 -17 0 -6 5 -5 12 2 6 6 9 14 7 17 -3 3
-9 2 -12 -2z"/>
<path d="M215 1430 c-3 -5 1 -10 9 -10 9 0 16 5 16 10 0 6 -4 10 -9 10 -6 0
-13 -4 -16 -10z"/>
<path d="M1881 1419 c-1 -9 -10 -19 -21 -22 -28 -7 -25 -27 5 -27 14 0 25 -4
25 -9 0 -6 8 -9 18 -9 9 0 26 -3 37 -6 20 -8 20 -7 1 8 -19 15 -19 16 11 16
22 0 32 5 36 20 5 21 -7 28 -18 10 -12 -19 -62 -11 -78 13 -12 17 -16 18 -16
6z"/>
<path d="M1435 1383 c19 -21 27 -25 36 -16 17 17 -8 48 -26 33 -7 -6 -16 -6
-23 0 -7 6 -1 -2 13 -17z"/>
<path d="M1730 1316 c0 -2 7 -7 16 -10 8 -3 12 -2 9 4 -6 10 -25 14 -25 6z"/>
<path d="M1697 1288 c6 -11 31 -10 37 1 3 5 -5 8 -18 7 -13 0 -22 -4 -19 -8z"/>
<path d="M1590 1269 c0 -6 -7 -8 -16 -5 -8 3 -12 2 -9 -4 8 -14 18 -13 41 5
17 13 17 14 2 15 -10 0 -18 -5 -18 -11z"/>
<path d="M2287 1239 c7 -7 15 -10 18 -7 3 3 -2 9 -12 12 -14 6 -15 5 -6 -5z"/>
<path d="M2388 1187 c3 -11 10 -16 19 -13 8 3 11 1 8 -4 -4 -7 4 -9 21 -6 17
3 31 0 36 -7 6 -9 8 -9 8 1 0 6 9 12 19 12 11 0 23 5 27 12 4 7 3 8 -4 4 -7
-4 -12 -2 -12 4 0 7 -7 10 -15 6 -8 -3 -15 -1 -15 3 0 5 -22 8 -48 8 -42 -2
-48 -5 -44 -20z"/>
<path d="M2430 1100 c0 -5 9 -14 20 -20 23 -12 26 -5 6 16 -17 16 -26 18 -26
4z"/>
<path d="M2466 1034 c-3 -8 -6 -17 -6 -18 0 -1 9 -2 20 -3 23 -2 26 10 6 26
-11 9 -15 8 -20 -5z"/>
</g>
</svg>
