<?xml version="1.0" standalone="no"?>
<!DOCTYPE svg PUBLIC "-//W3C//DTD SVG 20010904//EN"
 "http://www.w3.org/TR/2001/REC-SVG-20010904/DTD/svg10.dtd">
<svg version="1.0" xmlns="http://www.w3.org/2000/svg"
 width="345.000000pt" height="205.000000pt" viewBox="0 0 345.000000 205.000000"
 preserveAspectRatio="xMidYMid meet">

<g transform="translate(0.000000,205.000000) scale(0.100000,-0.100000)"
fill="#000000" stroke="none">
<path d="M0 1435 c0 -338 2 -615 5 -615 7 0 122 33 225 64 222 68 417 115 480
115 59 1 219 -12 328 -25 40 -5 42 -7 42 -39 0 -40 1 -40 -140 -90 -158 -56
-154 -55 -144 -65 14 -14 86 8 78 23 -5 8 -3 8 7 0 7 -7 33 -13 59 -14 25 -1
56 -4 69 -8 20 -5 17 -8 -28 -25 -41 -14 -66 -17 -119 -12 -37 4 -75 10 -84
12 -13 4 -18 0 -18 -15 0 -12 -4 -21 -10 -21 -5 0 -10 7 -10 15 0 8 -5 15 -11
15 -5 0 -8 4 -4 9 3 5 -30 -1 -72 -15 -43 -13 -96 -29 -118 -35 -167 -44 -200
-58 -208 -89 -3 -11 -2 -20 1 -20 4 0 48 -7 97 -15 50 -8 113 -17 140 -20 28
-4 217 -33 420 -66 204 -33 417 -66 475 -74 58 -9 143 -22 190 -30 181 -32
544 -85 574 -85 25 0 68 32 237 173 221 185 237 198 286 227 18 10 33 29 35
42 3 21 8 23 58 23 50 0 113 -11 210 -35 68 -17 122 -21 114 -9 -5 9 11 10 62
6 38 -4 104 -10 147 -13 l77 -7 0 216 0 215 -27 6 c-16 2 -73 8 -128 12 -73 5
-92 9 -70 15 29 6 29 7 -8 8 -30 1 -40 6 -44 21 -3 11 -10 20 -17 20 -6 0 -3
5 7 11 13 7 17 22 15 57 l-1 47 -8 -50 c-10 -66 -1 150 17 430 7 121 14 244
14 273 l0 52 -185 0 -185 0 0 -39 c0 -21 -4 -128 -10 -237 -5 -109 -12 -267
-14 -349 -3 -83 -11 -165 -17 -183 -13 -38 -1 -38 -244 -16 -99 8 -195 14
-212 12 -18 -2 -35 1 -38 7 -3 5 -3 0 -1 -13 2 -12 0 -20 -5 -16 -5 3 -9 22
-9 44 0 27 -5 40 -17 45 -15 5 -16 4 -5 -6 14 -15 16 -45 3 -53 -5 -4 -7 3 -4
14 3 12 0 20 -6 20 -7 0 -10 -3 -8 -7 6 -10 -19 -34 -27 -26 -3 4 -6 -6 -6
-22 0 -27 -1 -28 -44 -22 -43 6 -44 6 -50 -25 -3 -17 -6 -38 -6 -47 1 -13 3
-13 16 4 8 11 12 25 10 31 -5 13 14 24 40 24 17 0 20 -80 4 -110 -9 -16 -14
-17 -42 -8 -40 14 -53 -2 -62 -75 -4 -28 -9 -67 -12 -84 -6 -33 -6 -33 35 -33
39 0 41 -2 41 -30 0 -27 -3 -30 -34 -30 -32 0 -380 38 -546 60 -41 5 -90 11
-107 12 -20 1 -33 8 -33 16 0 27 80 386 88 393 4 3 156 -4 337 -17 392 -27
392 -27 379 -14 -10 10 -124 21 -229 22 -44 0 -47 1 -20 9 22 6 14 6 -25 3
-42 -4 -52 -3 -40 6 11 9 -11 10 -90 7 -58 -2 -94 0 -80 4 14 4 56 7 94 8 104
2 76 8 -59 13 -66 3 -95 2 -65 -1 48 -5 40 -7 -68 -14 -90 -7 -127 -6 -137 3
-15 12 -39 5 -30 -10 3 -5 0 -12 -6 -16 -9 -5 -10 1 -5 20 7 28 -8 37 -18 10
-5 -12 -18 -15 -65 -12 -33 1 -57 0 -55 -3 2 -4 -3 -10 -12 -13 -11 -4 -15 -2
-11 7 4 11 -6 14 -39 14 -29 0 -41 -4 -37 -11 4 -6 -1 -5 -10 3 -18 14 -286
45 -559 64 -25 2 -28 6 -28 40 0 20 -4 37 -9 37 -5 0 -8 31 -6 70 1 38 -1 68
-5 65 -4 -3 -11 84 -14 193 -4 108 -9 212 -12 230 l-5 32 -103 0 -103 0 5
-302 c6 -394 -10 -389 -34 10 l-18 292 -163 0 -163 0 0 -615z m2841 -5 c-4
-29 -9 -40 -14 -32 -11 16 2 97 13 85 4 -4 5 -28 1 -53z m-11 -64 c0 -3 -4 -8
-10 -11 -5 -3 -10 -1 -10 4 0 6 5 11 10 11 6 0 10 -2 10 -4z m-1628 -93 c-9
-28 -9 -27 -9 10 1 22 5 33 10 28 6 -6 5 -20 -1 -38z m88 16 c0 -11 -4 -17
-10 -14 -5 3 -10 15 -10 26 0 11 5 17 10 14 6 -3 10 -15 10 -26z m383 24 c-7
-2 -19 -2 -25 0 -7 3 -2 5 12 5 14 0 19 -2 13 -5z m-316 -25 c-3 -8 -6 -5 -6
6 -1 11 2 17 5 13 3 -3 4 -12 1 -19z m-188 -35 c-1 -27 -4 -38 -6 -25 -5 24
-23 31 -23 7 0 -9 -6 -12 -17 -8 -11 4 -13 8 -5 11 7 2 9 9 6 14 -4 7 -2 8 4
4 7 -4 14 3 18 19 10 42 24 28 23 -22z m80 -9 c-7 -13 -16 -24 -20 -24 -11 0
0 51 14 69 10 12 13 12 15 -4 2 -10 -2 -28 -9 -41z m225 38 c-15 -10 -30 -57
-15 -48 13 8 14 -4 2 -23 -7 -11 -10 -10 -15 5 -3 11 -4 28 -1 39 2 11 4 23 4
28 1 4 9 7 19 7 10 0 13 -3 6 -8z m-142 -9 c-6 -2 -9 -10 -6 -15 4 -7 2 -8 -5
-4 -13 9 -5 26 12 25 9 0 8 -2 -1 -6z m35 -25 c-3 -8 -6 -5 -6 6 -1 11 2 17 5
13 3 -3 4 -12 1 -19z m-49 -23 c-3 -3 -9 2 -12 12 -6 14 -5 15 5 6 7 -7 10
-15 7 -18z m-231 9 c-3 -3 -12 -4 -19 -1 -8 3 -5 6 6 6 11 1 17 -2 13 -5z
m290 -26 c-3 -8 -6 -5 -6 6 -1 11 2 17 5 13 3 -3 4 -12 1 -19z m30 0 c-3 -8
-6 -5 -6 6 -1 11 2 17 5 13 3 -3 4 -12 1 -19z m842 -33 l0 -20 -9 20 c-5 11
-9 29 -9 40 l0 20 9 -20 c5 -11 9 -29 9 -40z m94 38 c-7 -2 -19 -2 -25 0 -7 3
-2 5 12 5 14 0 19 -2 13 -5z m-908 -59 c-13 -26 -15 -27 -15 -7 0 12 4 24 10
28 5 3 7 13 4 23 -5 15 -5 16 5 1 8 -13 7 -24 -4 -45z m860 15 c4 -11 4 -23 1
-26 -3 -4 -6 1 -6 11 0 9 -4 15 -8 12 -5 -3 -9 1 -9 9 0 22 15 18 22 -6z
m-1195 7 c0 -2 -9 -6 -20 -9 -11 -3 -18 -1 -14 4 5 9 34 13 34 5z m347 -48
c-3 -8 -6 -5 -6 6 -1 11 2 17 5 13 3 -3 4 -12 1 -19z m890 -4 c-3 -3 -12 -4
-19 -1 -8 3 -5 6 6 6 11 1 17 -2 13 -5z m-897 -34 c0 -5 -7 -7 -15 -4 -8 4
-15 8 -15 10 0 2 7 4 15 4 8 0 15 -4 15 -10z m787 -32 c-3 -8 -6 -5 -6 6 -1
11 2 17 5 13 3 -3 4 -12 1 -19z m-798 -20 c0 -28 -2 -30 -9 -13 -12 28 -12 45
0 45 6 0 10 -15 9 -32z m871 12 c0 -5 -4 -10 -10 -10 -5 0 -10 5 -10 10 0 6 5
10 10 10 6 0 10 -4 10 -10z m-40 -20 c0 -5 -5 -10 -11 -10 -5 0 -7 5 -4 10 3
6 8 10 11 10 2 0 4 -4 4 -10z m-863 -22 c-3 -8 -6 -5 -6 6 -1 11 2 17 5 13 3
-3 4 -12 1 -19z m820 -10 c-3 -7 -5 -2 -5 12 0 14 2 19 5 13 2 -7 2 -19 0 -25z
m-830 -30 c-3 -8 -6 -5 -6 6 -1 11 2 17 5 13 3 -3 4 -12 1 -19z m19 -38 c-6
-38 -15 -60 -23 -60 -23 0 -14 -30 10 -31 12 -1 1 -5 -25 -9 -26 -5 -78 -23
-115 -41 l-68 -32 45 -9 c25 -4 131 -19 235 -33 105 -14 240 -32 300 -40 148
-20 250 -27 210 -15 l-30 9 35 -3 c37 -3 59 7 128 62 40 32 42 32 39 10 -5
-33 -209 -168 -254 -168 -31 0 -213 24 -413 55 -237 36 -412 57 -435 51 -14
-4 -25 -12 -25 -20 0 -13 36 -21 130 -30 122 -12 265 -38 272 -50 4 -7 28 -19
53 -26 25 -7 45 -19 45 -26 0 -8 16 -16 41 -20 23 -4 35 -10 29 -14 -11 -7 6
-11 100 -25 19 -3 50 -8 69 -11 18 -3 31 -7 28 -10 -4 -5 -397 42 -427 51 -8
2 -117 20 -242 39 -369 57 -411 66 -391 82 10 7 13 14 6 14 -6 0 -11 13 -11
29 1 15 -2 33 -6 40 -5 7 2 11 18 11 13 0 26 -5 28 -11 4 -12 70 -28 120 -29
20 0 73 16 118 35 45 19 86 35 92 35 16 0 162 70 169 82 4 6 15 11 25 12 59 6
73 17 80 62 3 24 10 42 14 39 4 -3 13 9 19 25 16 46 18 36 7 -30z m801 8 c-3
-7 -5 -2 -5 12 0 14 2 19 5 13 2 -7 2 -19 0 -25z m-20 -30 c-3 -7 -5 -2 -5 12
0 14 2 19 5 13 2 -7 2 -19 0 -25z m-927 -21 c0 -2 -12 -14 -27 -28 l-28 -24
24 28 c23 25 31 32 31 24z m180 -22 c-26 -14 -36 -13 -27 2 3 5 16 9 29 10
l23 2 -25 -14z m-405 -15 c-3 -5 -16 -10 -28 -9 -20 1 -20 2 3 9 14 4 26 8 28
9 2 1 0 -3 -3 -9z m1140 0 c-3 -5 -12 -10 -18 -10 -7 0 -6 4 3 10 19 12 23 12
15 0z m-585 -10 c0 -5 -2 -10 -4 -10 -3 0 -8 5 -11 10 -3 6 -1 10 4 10 6 0 11
-4 11 -10z m850 -16 c153 -16 196 -24 129 -24 -69 0 -359 34 -359 43 0 5 17 6
38 3 20 -3 107 -13 192 -22z m-780 12 c0 -3 -4 -8 -10 -11 -5 -3 -10 -1 -10 4
0 6 5 11 10 11 6 0 10 -2 10 -4z m133 -3 c-7 -2 -21 -2 -30 0 -10 3 -4 5 12 5
17 0 24 -2 18 -5z m80 -10 c-7 -2 -19 -2 -25 0 -7 3 -2 5 12 5 14 0 19 -2 13
-5z m-956 -9 c-3 -3 -12 -4 -19 -1 -8 3 -5 6 6 6 11 1 17 -2 13 -5z m856 -11
c-7 -2 -21 -2 -30 0 -10 3 -4 5 12 5 17 0 24 -2 18 -5z m107 3 c0 -2 -11 -6
-25 -8 -13 -3 -22 -1 -19 3 5 9 44 13 44 5z m117 -2 c-3 -3 -12 -4 -19 -1 -8
3 -5 6 6 6 11 1 17 -2 13 -5z m689 -12 c-21 -2 -42 0 -47 5 -4 4 13 6 39 3
l47 -5 -39 -3z m-509 -14 c-3 -8 -6 -5 -6 6 -1 11 2 17 5 13 3 -3 4 -12 1 -19z
m-800 6 c-3 -3 -12 -4 -19 -1 -8 3 -5 6 6 6 11 1 17 -2 13 -5z m1390 0 c-3 -3
-12 -4 -19 -1 -8 3 -5 6 6 6 11 1 17 -2 13 -5z m-682 -32 c-3 -3 -11 0 -18 7
-9 10 -8 11 6 5 10 -3 15 -9 12 -12z m35 -2 c0 -5 -5 -10 -11 -10 -5 0 -7 5
-4 10 3 6 8 10 11 10 2 0 4 -4 4 -10z m-733 -6 c-3 -3 -12 -4 -19 -1 -8 3 -5
6 6 6 11 1 17 -2 13 -5z m783 -4 c0 -5 -5 -10 -11 -10 -5 0 -7 5 -4 10 3 6 8
10 11 10 2 0 4 -4 4 -10z m977 4 c-3 -3 -12 -4 -19 -1 -8 3 -5 6 6 6 11 1 17
-2 13 -5z m-2422 -14 c3 -6 -1 -7 -9 -4 -18 7 -21 14 -7 14 6 0 13 -4 16 -10z
m1472 -2 c-3 -10 23 -14 107 -16 63 -2 117 -8 124 -15 8 -6 42 -11 77 -12 35
0 61 -3 59 -7 -6 -10 58 -4 75 6 10 6 12 5 7 -3 -15 -24 -295 -251 -310 -251
-8 0 -31 -14 -50 -31 l-35 -30 -165 22 c-91 13 -163 26 -160 30 2 4 -1 11 -7
15 -8 4 -9 3 -5 -4 8 -14 -30 -14 -79 -2 -34 9 -30 10 40 15 28 3 61 7 75 10
17 4 20 3 12 -3 -10 -7 -6 -12 19 -21 45 -15 60 -13 24 4 -23 11 -24 13 -5 7
61 -18 168 -1 210 34 8 6 35 15 60 19 80 13 150 74 122 108 -9 10 -9 16 0 25
9 9 8 12 -3 12 -9 0 -33 -15 -55 -34 -62 -53 -97 -67 -146 -60 -57 9 -78 21
-78 43 0 19 62 81 80 81 21 0 9 20 -15 26 l-25 6 23 19 c26 22 31 23 24 7z
m-600 -214 c-3 -3 -12 -4 -19 -1 -8 3 -5 6 6 6 11 1 17 -2 13 -5z m240 -50
c-3 -3 -12 -4 -19 -1 -8 3 -5 6 6 6 11 1 17 -2 13 -5z"/>
<path d="M1381 904 c0 -11 3 -14 6 -6 3 7 2 16 -1 19 -3 4 -6 -2 -5 -13z"/>
<path d="M2128 423 c6 -2 18 -2 25 0 6 3 1 5 -13 5 -14 0 -19 -2 -12 -5z"/>
<path d="M2063 413 c9 -2 23 -2 30 0 6 3 -1 5 -18 5 -16 0 -22 -2 -12 -5z"/>
<path d="M3212 1940 c0 -19 2 -27 5 -17 2 9 2 25 0 35 -3 9 -5 1 -5 -18z"/>
<path d="M3201 1794 c0 -11 3 -14 6 -6 3 7 2 16 -1 19 -3 4 -6 -2 -5 -13z"/>
<path d="M3192 1630 c0 -14 2 -19 5 -12 2 6 2 18 0 25 -3 6 -5 1 -5 -13z"/>
<path d="M3183 1475 c0 -22 2 -30 4 -17 2 12 2 30 0 40 -3 9 -5 -1 -4 -23z"/>
<path d="M1563 1353 c9 -2 25 -2 35 0 9 3 1 5 -18 5 -19 0 -27 -2 -17 -5z"/>
<path d="M1958 1323 c17 -2 47 -2 65 0 17 2 3 4 -33 4 -36 0 -50 -2 -32 -4z"/>
<path d="M2085 1315 c22 -8 134 -11 123 -3 -7 4 -40 7 -73 7 -33 0 -55 -2 -50
-4z"/>
<path d="M1626 1183 c-3 -4 -6 -17 -6 -29 0 -22 4 -23 90 -26 50 -2 90 0 90 3
0 19 -160 66 -174 52z"/>
<path d="M3343 1173 c9 -2 23 -2 30 0 6 3 -1 5 -18 5 -16 0 -22 -2 -12 -5z"/>
<path d="M1836 1135 c-17 -13 -18 -15 -3 -15 9 0 17 -8 17 -17 0 -10 3 -28 6
-39 4 -14 -2 -30 -19 -48 -24 -25 -44 -36 -32 -16 4 6 -1 7 -11 3 -14 -5 -16
-2 -12 15 4 15 2 19 -8 15 -13 -5 -18 12 -17 55 1 19 -37 14 -38 -5 -1 -10 -3
-25 -4 -33 -1 -8 -3 -20 -4 -26 0 -6 -11 -10 -23 -8 -13 1 -28 3 -35 3 -17 1
-4 31 14 31 8 0 11 -4 8 -10 -3 -5 1 -10 10 -10 11 0 15 5 12 14 -3 7 0 19 6
25 9 9 8 14 -3 21 -9 6 -17 5 -22 -3 -4 -6 -23 -10 -43 -8 -31 2 -36 0 -34
-16 1 -10 -1 -25 -4 -33 -19 -47 -25 -91 -14 -95 18 -7 371 -45 411 -45 38 0
46 12 46 67 0 30 -2 34 -15 23 -8 -7 -15 -9 -15 -5 0 5 -9 0 -19 -9 -13 -12
-21 -14 -26 -6 -3 5 -11 8 -16 5 -13 -9 -11 4 9 46 12 28 23 39 40 39 35 0 26
13 -23 33 -25 11 -43 23 -40 28 6 9 -46 39 -67 39 -7 0 -22 -7 -32 -15z m54 1
c0 -2 -7 -7 -16 -10 -8 -3 -12 -2 -9 4 6 10 25 14 25 6z m67 -79 c-6 -19 -23
-18 -23 2 0 11 5 17 14 14 7 -3 11 -10 9 -16z m-73 -41 c-3 -9 -10 -13 -16
-10 -5 3 -4 12 3 20 15 18 22 13 13 -10z"/>
<path d="M2046 1094 c-5 -14 -4 -15 9 -4 17 14 19 20 6 20 -5 0 -12 -7 -15
-16z"/>
<path d="M1815 1080 c3 -5 8 -10 11 -10 2 0 4 5 4 10 0 6 -5 10 -11 10 -5 0
-7 -4 -4 -10z"/>
<path d="M746 771 c-4 -5 3 -7 14 -4 23 6 26 13 6 13 -8 0 -17 -4 -20 -9z"/>
<path d="M3258 713 c7 -3 16 -2 19 1 4 3 -2 6 -13 5 -11 0 -14 -3 -6 -6z"/>
<path d="M3368 703 c6 -2 18 -2 25 0 6 3 1 5 -13 5 -14 0 -19 -2 -12 -5z"/>
<path d="M0 280 l0 -280 1727 0 c950 0 1723 4 1718 8 -6 5 -75 19 -155 31
-201 31 -493 76 -765 117 -126 19 -356 55 -510 79 -154 24 -372 58 -485 74
-113 17 -220 33 -238 37 -33 7 -33 6 -21 -15 8 -11 18 -21 24 -21 10 -1 105
-150 105 -165 0 -5 -18 20 -41 55 -59 91 -138 166 -213 201 -68 32 -163 54
-504 119 -274 52 -299 52 -293 3 2 -16 11 -17 -163 12 -83 14 -158 25 -168 25
-17 0 -18 -17 -18 -280z"/>
</g>
</svg>
